<svg width="77" height="62" viewBox="0 0 77 62" fill="none" xmlns="http://www.w3.org/2000/svg">
<path d="M38.4341 46.1241H15.3701V26.9041H7.68107V57.6561C7.68107 58.1607 7.78053 58.6604 7.97375 59.1265C8.16698 59.5927 8.45019 60.0162 8.80719 60.3728C9.16419 60.7295 9.58799 61.0122 10.0543 61.205C10.5207 61.3977 11.0205 61.4966 11.5251 61.4961H42.2781C42.783 61.4966 43.2831 61.3976 43.7497 61.2046C44.2163 61.0116 44.6403 60.7285 44.9974 60.3714C45.3544 60.0144 45.6375 59.5904 45.8305 59.1238C46.0235 58.6572 46.1226 58.1571 46.1221 57.6521V26.9041H38.4341V46.1241ZM76.2251 17.0781L65.9781 1.70212C65.6242 1.17674 65.1467 0.746367 64.5875 0.448883C64.0283 0.151399 63.4045 -0.00408277 62.7711 -0.00388077H14.0961C13.4632 -0.00618975 12.8397 0.148434 12.2812 0.446155C11.7228 0.743875 11.2469 1.1754 10.8961 1.70212L0.65407 17.0781C0.26651 17.6572 0.0436449 18.3307 0.00930915 19.0267C-0.0250266 19.7227 0.130459 20.4149 0.459136 21.0293C0.787814 21.6437 1.27732 22.1572 1.87531 22.515C2.47329 22.8727 3.15726 23.0611 3.85407 23.0601H73.0341C73.7292 23.0571 74.4105 22.866 75.0058 22.5072C75.601 22.1483 76.0881 21.6349 76.4152 21.0217C76.7424 20.4084 76.8974 19.718 76.864 19.0237C76.8305 18.3294 76.6097 17.6571 76.2251 17.0781ZM61.4961 59.5781C61.4987 60.087 61.7025 60.5743 62.0629 60.9336C62.4233 61.2929 62.9112 61.4951 63.4201 61.4961H67.2641C67.7733 61.4945 68.2613 61.2915 68.6214 60.9314C68.9815 60.5713 69.1845 60.0834 69.1861 59.5741V26.9041H61.4961V59.5781Z" fill="#1491AE"/>
</svg>
