<svg width="68" height="61" viewBox="0 0 68 61" fill="none" xmlns="http://www.w3.org/2000/svg">
<path d="M65.2162 34.4273H55.9052V45.6043L52.1802 43.1253L48.4552 45.6043V34.4273H39.1432C38.6499 34.4289 38.1772 34.6256 37.8283 34.9744C37.4795 35.3233 37.2828 35.7959 37.2812 36.2893V58.6383C37.2817 59.1323 37.4779 59.6061 37.8269 59.9558C38.1759 60.3055 38.6492 60.5027 39.1432 60.5043H65.2162C65.7095 60.5027 66.1822 60.306 66.5311 59.9572C66.8799 59.6083 67.0766 59.1356 67.0782 58.6423V36.2893C67.0766 35.7959 66.8799 35.3233 66.5311 34.9744C66.1822 34.6256 65.7095 34.4289 65.2162 34.4273ZM20.5162 26.9773H46.5932C47.0866 26.9757 47.5592 26.779 47.9081 26.4302C48.2569 26.0813 48.4536 25.6086 48.4552 25.1153V2.7663C48.4536 2.27295 48.2569 1.80026 47.9081 1.45141C47.5592 1.10256 47.0866 0.905879 46.5932 0.904297L37.2812 0.904297V12.0783L33.5562 9.6043L29.8332 12.0783V0.904297H20.5192C20.0259 0.905879 19.5532 1.10256 19.2043 1.45141C18.8555 1.80026 18.6588 2.27295 18.6572 2.7663V25.1153C18.6588 25.6086 18.8555 26.0813 19.2043 26.4302C19.5532 26.779 20.0259 26.9757 20.5192 26.9773H20.5162ZM27.9662 34.4273H18.6572V45.6043L14.9332 43.1223L11.2072 45.6043V34.4273H1.8952C1.40186 34.4289 0.929168 34.6256 0.580318 34.9744C0.231468 35.3233 0.0347852 35.7959 0.0332031 36.2893L0.0332031 58.6383C0.0337295 59.1323 0.229946 59.6061 0.57891 59.9558C0.927874 60.3055 1.40117 60.5027 1.8952 60.5043H27.9692C28.4636 60.5032 28.9374 60.3062 29.2868 59.9565C29.6362 59.6067 29.8327 59.1327 29.8332 58.6383V36.2893C29.8316 35.7956 29.6347 35.3226 29.2854 34.9737C28.9361 34.6248 28.4629 34.4284 27.9692 34.4273H27.9662Z" fill="#1491AE"/>
</svg>
